# xmcd CD database file
#
# Track frame offsets:
#	150
#	27865
#	56099
#	81914
#	103609
#	130104
#	140179
#	163267
#	185628
#	205083
#
# Disc length: 2964 seconds
#
# Revision: 0
# Processed by: cddbd v1.5.1PL0 Copyright (c) Steve Scherf et al.
# Submitted via: CDex 1.51
#
DISCID=910b920a
DTITLE=Sanctuary 05 - Beneath The Greenwood
DYEAR=2002
DGENRE=New Age
TTITLE0=Solemn Sunset
TTITLE1=The Last Note
TTITLE2=Shades Of Night
TTITLE3=Vesper Star
TTITLE4=Midnight Visitor
TTITLE5=Mellow The Moonlight
TTITLE6=Song For The Greenwood
TTITLE7=Na Doine Sidhe
TTITLE8=Before The Dawn
TTITLE9=The Misty Mood Of Morn
EXTD=YEAR: 2002
EXTT0=
EXTT1=
EXTT2=
EXTT3=
EXTT4=
EXTT5=
EXTT6=
EXTT7=
EXTT8=
EXTT9=
PLAYORDER=
